<svg xmlns="http://www.w3.org/2000/svg" width="35" height="30" fill="none"><path fill="#fff" d="M30.06 13.538c-1.086-1.127-2.58-1.91-4.245-2.226-.379-1.45-1.035-2.7-1.998-3.737a1 1 0 0 0-.087-.1c-3.208-3.325-8.458-3.312-12.002-1.587-3.033 1.487-5.615 4.624-4.258 9.1-3.107.65-4.536 2.974-4.536 5.075 0 2.35 1.794 4.987 5.79 5.237H23.86c2.071 0 4.054-.663 5.586-1.863 3.66-2.774 3.179-7.3.612-9.9m1.673-2.61c0 .424-.058.837-.204 1.237-1.058-1.049-2.407-1.852-3.923-2.337a10.4 10.4 0 0 0-2.158-3.5 5 5 0 0 1 .846-.063c1.442 0 2.826.491 3.846 1.366 1.02.874 1.593 2.06 1.593 3.297"/></svg>