<svg xmlns="http://www.w3.org/2000/svg" width="30" height="30" fill="none"><path fill="#000" d="m29.59 25.94-5.842-5.842a1.4 1.4 0 0 0-.996-.41h-.955a12.13 12.13 0 0 0 2.578-7.5C24.375 5.455 18.92 0 12.188 0 5.455 0 0 5.455 0 12.188c0 6.732 5.455 12.187 12.188 12.187 2.83 0 5.431-.96 7.5-2.578v.955c0 .375.146.732.41.996l5.842 5.842a1.4 1.4 0 0 0 1.986 0l1.658-1.658c.55-.551.55-1.442.006-1.992m-17.402-6.253a7.496 7.496 0 0 1-7.5-7.5c0-4.142 3.351-7.5 7.5-7.5 4.142 0 7.5 3.352 7.5 7.5 0 4.143-3.352 7.5-7.5 7.5"/></svg>