<svg xmlns="http://www.w3.org/2000/svg" width="33" height="30" fill="none"><path fill="#fff" d="M16.5 23.75c1.264 0 2.516-.226 3.683-.666a9.7 9.7 0 0 0 3.123-1.897 8.7 8.7 0 0 0 2.086-2.838c.484-1.062.733-2.2.733-3.349s-.249-2.287-.733-3.348a8.7 8.7 0 0 0-2.086-2.84 9.7 9.7 0 0 0-3.123-1.896A10.5 10.5 0 0 0 16.5 6.25c-2.553 0-5 .922-6.806 2.563C7.89 10.453 6.875 12.679 6.875 15c0 2.32 1.014 4.546 2.82 6.187 1.804 1.641 4.252 2.563 6.805 2.563m0 4.95c-.756 0-1.375-.512-1.375-1.2v-.1c0-.687.619-1.25 1.375-1.25s1.375.563 1.375 1.25-.619 1.3-1.375 1.3m9.817-3.525c-.357 0-.7-.125-.976-.363l-.178-.162a1.3 1.3 0 0 1-.298-.404 1.15 1.15 0 0 1 0-.954c.07-.151.17-.289.298-.405.127-.115.278-.207.444-.27a1.5 1.5 0 0 1 1.05 0c.166.063.317.155.444.27l.179.163c.191.174.321.395.374.636s.026.49-.076.718a1.3 1.3 0 0 1-.502.559 1.47 1.47 0 0 1-.759.212m-19.634 0c-.358 0-.702-.125-.977-.363a1.2 1.2 0 0 1-.297-.404 1.15 1.15 0 0 1 0-.954q.105-.228.297-.404l.179-.163a1.4 1.4 0 0 1 .445-.27 1.5 1.5 0 0 1 1.049 0q.251.096.445.27c.127.116.228.254.297.405a1.15 1.15 0 0 1 0 .954c-.069.15-.17.288-.297.404l-.179.163a1.45 1.45 0 0 1-.962.362M30.25 16.25h-.11c-.756 0-1.375-.562-1.375-1.25s.619-1.25 1.375-1.25 1.43.563 1.43 1.25-.564 1.25-1.32 1.25m-27.39 0h-.11c-.756 0-1.375-.562-1.375-1.25s.619-1.25 1.375-1.25 1.43.563 1.43 1.25-.564 1.25-1.32 1.25m23.279-8.762c-.358 0-.701-.126-.976-.363a1.2 1.2 0 0 1-.298-.404 1.15 1.15 0 0 1 0-.954q.105-.23.298-.405l.178-.162c.127-.116.279-.208.445-.27a1.5 1.5 0 0 1 1.05 0c.166.062.317.154.444.27q.192.176.297.404a1.15 1.15 0 0 1 0 .954c-.069.151-.17.289-.297.405l-.179.162a1.42 1.42 0 0 1-.962.362m-19.278 0c-.357 0-.701-.126-.976-.363l-.179-.175a1.3 1.3 0 0 1-.297-.404 1.15 1.15 0 0 1 0-.954c.069-.151.17-.289.297-.404q.194-.175.445-.27a1.5 1.5 0 0 1 1.05 0c.166.062.317.154.444.27l.179.162a1.167 1.167 0 0 1 0 1.763c-.261.25-.619.374-.963.374M16.5 3.8c-.756 0-1.375-.512-1.375-1.2v-.1c0-.687.619-1.25 1.375-1.25s1.375.563 1.375 1.25-.619 1.3-1.375 1.3"/></svg>